<svg width="24" height="24" viewBox="0 0 24 24" fill="none" xmlns="http://www.w3.org/2000/svg">
<path d="M4.26599 16.0601C5.11204 17.7706 6.48419 19.1649 8.18099 20.0381C9.86563 20.9031 11.7864 21.1952 13.652 20.8701C15.5234 20.541 17.2379 19.6148 18.539 18.2301C19.8521 16.8323 20.6882 15.054 20.927 13.1511C21.1695 11.2438 20.8041 9.30868 19.883 7.6211C18.9705 5.94662 17.5445 4.60933 15.815 3.8061C14.0967 3.01026 12.1656 2.79679 10.315 3.1981C8.46499 3.5991 6.94799 4.5111 5.69499 5.9531C5.54299 6.1131 4.95899 6.7591 4.47499 7.7341" stroke="#FDFDFD" stroke-width="2" stroke-linecap="round" stroke-linejoin="round"/>
<path d="M8.931 7.81309L3.891 8.72009L3 3.59009" stroke="#FDFDFD" stroke-width="2" stroke-linecap="round" stroke-linejoin="round"/>
<path d="M10.6477 10.1818V16H9.94318V10.9205H9.90909L8.48864 11.8636V11.1477L9.94318 10.1818H10.6477ZM14.2188 16.0795C13.7907 16.0795 13.4261 15.9631 13.125 15.7301C12.8239 15.4953 12.5938 15.1553 12.4347 14.7102C12.2756 14.2633 12.196 13.7235 12.196 13.0909C12.196 12.4621 12.2756 11.9252 12.4347 11.4801C12.5956 11.0331 12.8267 10.6922 13.1278 10.4574C13.4309 10.2206 13.7945 10.1023 14.2188 10.1023C14.643 10.1023 15.0057 10.2206 15.3068 10.4574C15.6098 10.6922 15.8409 11.0331 16 11.4801C16.161 11.9252 16.2415 12.4621 16.2415 13.0909C16.2415 13.7235 16.1619 14.2633 16.0028 14.7102C15.8438 15.1553 15.6136 15.4953 15.3125 15.7301C15.0114 15.9631 14.6468 16.0795 14.2188 16.0795ZM14.2188 15.4545C14.643 15.4545 14.9725 15.25 15.2074 14.8409C15.4422 14.4318 15.5597 13.8485 15.5597 13.0909C15.5597 12.5871 15.5057 12.1581 15.3977 11.804C15.2917 11.4498 15.1383 11.1799 14.9375 10.9943C14.7386 10.8087 14.4991 10.7159 14.2188 10.7159C13.7983 10.7159 13.4697 10.9233 13.233 11.3381C12.9962 11.7509 12.8778 12.3352 12.8778 13.0909C12.8778 13.5947 12.9309 14.0227 13.0369 14.375C13.143 14.7273 13.2955 14.9953 13.4943 15.179C13.6951 15.3627 13.9366 15.4545 14.2188 15.4545Z" fill="white"/>
</svg>
