<svg width="16" height="16" viewBox="0 0 16 16" fill="none" xmlns="http://www.w3.org/2000/svg">
<path d="M8.0013 0.666504C3.9516 0.666504 0.667969 3.95013 0.667969 7.99984C0.667969 12.0495 3.9516 15.3332 8.0013 15.3332C12.051 15.3332 15.3346 12.0495 15.3346 7.99984C15.3346 3.95013 12.051 0.666504 8.0013 0.666504ZM10.3601 8.11278L6.78508 10.7138C6.76548 10.7279 6.74238 10.7363 6.71831 10.7381C6.69425 10.7399 6.67015 10.7351 6.64866 10.7241C6.62718 10.7131 6.60914 10.6964 6.59653 10.6758C6.58392 10.6552 6.57723 10.6316 6.57719 10.6074V5.40862C6.57712 5.38443 6.58373 5.3607 6.59632 5.34005C6.6089 5.3194 6.62696 5.30263 6.64848 5.29162C6.67001 5.2806 6.69417 5.27576 6.71828 5.27763C6.74239 5.2795 6.76551 5.28801 6.78508 5.30222L10.3601 7.90162C10.377 7.91357 10.3907 7.92939 10.4003 7.94776C10.4098 7.96613 10.4147 7.98652 10.4147 8.0072C10.4147 8.02789 10.4098 8.04827 10.4003 8.06665C10.3907 8.08502 10.377 8.10084 10.3601 8.11278Z" fill="#005CB9"/>
</svg>
