<svg width="13" height="13" viewBox="0 0 13 13" fill="none" xmlns="http://www.w3.org/2000/svg">
<path d="M1.6971 3.92169C1.63502 3.98313 1.58567 4.05622 1.55188 4.13677C1.51809 4.21732 1.50053 4.30374 1.50019 4.39108C1.49985 4.47843 1.51675 4.56498 1.54991 4.64579C1.58308 4.7266 1.63186 4.80007 1.69346 4.86199L6.14394 9.34707C6.1929 9.39651 6.25112 9.4358 6.31529 9.46271C6.37945 9.48962 6.44829 9.50361 6.51787 9.50388C6.58744 9.50415 6.65639 9.49069 6.72076 9.46428C6.78513 9.43787 6.84366 9.39903 6.893 9.34997L11.3781 4.89949C11.6394 4.64018 11.641 4.2205 11.3817 3.95918C11.1224 3.69786 10.7027 3.69624 10.4414 3.95554L6.52697 7.83979L2.63743 3.92001C2.3781 3.66401 1.95842 3.66238 1.6971 3.92169Z" fill="#FDFDFD"/>
</svg>
