<svg width="24" height="24" viewBox="0 0 24 24" fill="none" xmlns="http://www.w3.org/2000/svg">
<path d="M19.734 16.0601C18.888 17.7706 17.5158 19.1649 15.819 20.0381C14.1344 20.9031 12.2136 21.1952 10.348 20.8701C8.47659 20.5411 6.76205 19.6149 5.461 18.2301C4.14787 16.8323 3.31181 15.054 3.073 13.1511C2.83045 11.2438 3.19579 9.30866 4.117 7.6211C5.02975 5.94646 6.45609 4.60916 8.186 3.8061C9.90431 3.01026 11.8354 2.79679 13.686 3.1981C15.536 3.5991 17.052 4.5111 18.306 5.9531C18.457 6.1131 19.041 6.7591 19.526 7.7341" stroke="#FDFDFD" stroke-width="2" stroke-linecap="round" stroke-linejoin="round"/>
<path d="M15.069 7.81309L20.109 8.72009L21 3.59009" stroke="#FDFDFD" stroke-width="2" stroke-linecap="round" stroke-linejoin="round"/>
<path d="M9.64773 10.1818V16H8.94318V10.9205H8.90909L7.48864 11.8636V11.1477L8.94318 10.1818H9.64773ZM13.2188 16.0795C12.7907 16.0795 12.4261 15.9631 12.125 15.7301C11.8239 15.4953 11.5938 15.1553 11.4347 14.7102C11.2756 14.2633 11.196 13.7235 11.196 13.0909C11.196 12.4621 11.2756 11.9252 11.4347 11.4801C11.5956 11.0331 11.8267 10.6922 12.1278 10.4574C12.4309 10.2206 12.7945 10.1023 13.2188 10.1023C13.643 10.1023 14.0057 10.2206 14.3068 10.4574C14.6098 10.6922 14.8409 11.0331 15 11.4801C15.161 11.9252 15.2415 12.4621 15.2415 13.0909C15.2415 13.7235 15.1619 14.2633 15.0028 14.7102C14.8438 15.1553 14.6136 15.4953 14.3125 15.7301C14.0114 15.9631 13.6468 16.0795 13.2188 16.0795ZM13.2188 15.4545C13.643 15.4545 13.9725 15.25 14.2074 14.8409C14.4422 14.4318 14.5597 13.8485 14.5597 13.0909C14.5597 12.5871 14.5057 12.1581 14.3977 11.804C14.2917 11.4498 14.1383 11.1799 13.9375 10.9943C13.7386 10.8087 13.4991 10.7159 13.2188 10.7159C12.7983 10.7159 12.4697 10.9233 12.233 11.3381C11.9962 11.7509 11.8778 12.3352 11.8778 13.0909C11.8778 13.5947 11.9309 14.0227 12.0369 14.375C12.143 14.7273 12.2955 14.9953 12.4943 15.179C12.6951 15.3627 12.9366 15.4545 13.2188 15.4545Z" fill="white"/>
</svg>
