<svg width="15" height="13" viewBox="0 0 15 13" fill="none" xmlns="http://www.w3.org/2000/svg">
    <path d="M14.0758 4.51714L9.86063 3.94058L7.97635 0.345269C7.92488 0.246832 7.84022 0.167144 7.73563 0.118707C7.47332 -0.00316805 7.15457 0.0983945 7.02342 0.345269L5.13914 3.94058L0.924007 4.51714C0.807796 4.53277 0.701546 4.58433 0.620199 4.66246C0.521854 4.75759 0.467661 4.88558 0.469529 5.0183C0.471397 5.15103 0.529172 5.27762 0.63016 5.37027L3.67987 8.16871L2.95936 12.1203C2.94246 12.2122 2.95327 12.3067 2.99056 12.3932C3.02784 12.4796 3.09011 12.5545 3.17031 12.6093C3.25051 12.6641 3.34542 12.6967 3.44429 12.7033C3.54316 12.71 3.64202 12.6904 3.72967 12.6468L7.49988 10.7812L11.2701 12.6468C11.373 12.6984 11.4926 12.7156 11.6071 12.6968C11.896 12.65 12.0902 12.3921 12.0404 12.1203L11.3199 8.16871L14.3696 5.37027C14.4526 5.29371 14.5074 5.19371 14.524 5.08433C14.5688 4.81089 14.3663 4.55777 14.0758 4.51714Z" fill="#F5A52F"/>
</svg>
