<svg width="20" height="20" viewBox="0 0 20 20" fill="none" xmlns="http://www.w3.org/2000/svg">
<path fill-rule="evenodd" clip-rule="evenodd" d="M17.5002 0C16.8371 0 16.2012 0.263392 15.7324 0.732233C15.2636 1.20107 15.0002 1.83696 15.0002 2.5V17.5C15.0002 18.163 15.2636 18.7989 15.7324 19.2678C16.2012 19.7366 16.8371 20 17.5002 20C18.1632 20 18.7991 19.7366 19.2679 19.2678C19.7368 18.7989 20.0002 18.163 20.0002 17.5V2.5C20.0002 1.83696 19.7368 1.20107 19.2679 0.732233C18.7991 0.263392 18.1632 0 17.5002 0ZM10.0001 4.99978C9.33704 4.99978 8.70116 5.26317 8.23232 5.73201C7.76348 6.20085 7.50009 6.83674 7.50009 7.49978V17.4998C7.50009 18.1628 7.76348 18.7987 8.23232 19.2675C8.70116 19.7364 9.33704 19.9998 10.0001 19.9998C10.6631 19.9998 11.299 19.7364 11.7679 19.2675C12.2367 18.7987 12.5001 18.1628 12.5001 17.4998V7.49978C12.5001 6.83674 12.2367 6.20085 11.7679 5.73201C11.299 5.26317 10.6631 4.99978 10.0001 4.99978ZM0.732233 10.7322C1.20107 10.2634 1.83696 10 2.5 10C3.16304 10 3.79893 10.2634 4.26777 10.7322C4.73661 11.2011 5 11.837 5 12.5V17.5C5 18.163 4.73661 18.7989 4.26777 19.2678C3.79893 19.7366 3.16304 20 2.5 20C1.83696 20 1.20107 19.7366 0.732233 19.2678C0.263392 18.7989 0 18.163 0 17.5V12.5C0 11.837 0.263392 11.2011 0.732233 10.7322Z" fill="url(#paint0_linear_1382_34056)"/>
<defs>
<linearGradient id="paint0_linear_1382_34056" x1="23.429" y1="73.253" x2="-7.51625" y2="72.7572" gradientUnits="userSpaceOnUse">
<stop stop-color="#015DBA"/>
<stop offset="0.71243" stop-color="#019EBD"/>
<stop offset="1" stop-color="#01C8BF"/>
</linearGradient>
</defs>
</svg>
