<svg width="19" height="20" viewBox="0 0 19 20" fill="none" xmlns="http://www.w3.org/2000/svg">
<path d="M1.54098 19.625C1.99602 19.8195 2.4991 19.8723 2.98461 19.7765C3.47011 19.6808 3.91549 19.441 4.26265 19.0883L9.16681 14.2108L14.071 19.0883C14.2996 19.3203 14.5721 19.5047 14.8724 19.6307C15.1728 19.7567 15.4952 19.8219 15.821 19.8225C16.1558 19.8215 16.4872 19.7544 16.796 19.625C17.2547 19.4393 17.6469 19.1197 17.9211 18.7077C18.1954 18.2958 18.3391 17.8107 18.3335 17.3158V4.16667C18.3322 3.062 17.8927 2.00296 17.1116 1.22185C16.3305 0.440735 15.2715 0.00132321 14.1668 0L4.16681 0C3.06215 0.00132321 2.00311 0.440735 1.222 1.22185C0.44088 2.00296 0.00146834 3.062 0.000145122 4.16667V17.3158C-0.00523252 17.8111 0.138959 18.2964 0.413865 18.7084C0.688771 19.1204 1.0816 19.4399 1.54098 19.625Z" fill="url(#paint0_linear_1382_34074)"/>
<defs>
<linearGradient id="paint0_linear_1382_34074" x1="21.4767" y1="72.6049" x2="-6.891" y2="72.1845" gradientUnits="userSpaceOnUse">
<stop stop-color="#015DBA"/>
<stop offset="0.71243" stop-color="#019EBD"/>
<stop offset="1" stop-color="#01C8BF"/>
</linearGradient>
</defs>
</svg>
