<svg width="21" height="20" viewBox="0 0 21 20" fill="none" xmlns="http://www.w3.org/2000/svg">
<path d="M6.42871 10.8333C5.68703 10.8333 4.96201 10.6134 4.34532 10.2013C3.72864 9.78929 3.24799 9.20362 2.96416 8.5184C2.68033 7.83318 2.60607 7.07918 2.75077 6.35175C2.89546 5.62432 3.25261 4.95613 3.77706 4.43169C4.30151 3.90724 4.96969 3.55009 5.69712 3.40539C6.42455 3.2607 7.17855 3.33496 7.86377 3.61879C8.549 3.90262 9.13467 4.38326 9.54672 4.99995C9.95878 5.61663 10.1787 6.34166 10.1787 7.08334C10.1776 8.07756 9.78217 9.03075 9.07914 9.73377C8.37612 10.4368 7.42293 10.8322 6.42871 10.8333ZM12.6787 16.6667C12.6774 15.562 12.238 14.503 11.4569 13.7219C10.6757 12.9407 9.61671 12.5013 8.51204 12.5H4.34538C3.24071 12.5013 2.18168 12.9407 1.40056 13.7219C0.619446 14.503 0.180034 15.562 0.178711 16.6667L0.178711 17.9114C0.178711 19.0649 1.11381 20 2.26732 20H10.5901C11.7436 20 12.6787 19.0649 12.6787 17.9114V16.6667ZM14.762 7.5C14.0204 7.5 13.2953 7.28007 12.6787 6.86801C12.062 6.45596 11.5813 5.87029 11.2975 5.18507C11.0137 4.49984 10.9394 3.74584 11.0841 3.01841C11.2288 2.29098 11.5859 1.6228 12.1104 1.09835C12.6348 0.573904 13.303 0.216752 14.0305 0.0720569C14.7579 -0.0726377 15.5119 0.00162481 16.1971 0.285454C16.8823 0.569282 17.468 1.04993 17.8801 1.66661C18.2921 2.2833 18.512 3.00832 18.512 3.75C18.5109 4.74423 18.1155 5.69741 17.4125 6.40044C16.7095 7.10346 15.7563 7.4989 14.762 7.5ZM16.012 9.16667H11.8454V9.16667C11.5723 9.1792 11.3468 9.36509 11.2184 9.60645C11.2031 9.63521 11.1875 9.66383 11.1717 9.6923C10.8015 10.3592 11.0398 11.3605 11.68 11.7751C12.2459 12.1416 12.7477 12.6057 13.1602 13.15C13.5035 13.6032 13.7765 14.1009 13.9736 14.6263C14.3781 15.7051 15.2783 16.6667 16.4303 16.6667H18.0901C19.2436 16.6667 20.1787 15.7316 20.1787 14.5781V13.3333C20.1774 12.2287 19.738 11.1696 18.9569 10.3885C18.1757 9.60741 17.1167 9.16799 16.012 9.16667Z" fill="url(#paint0_linear_1382_34065)"/>
<defs>
<linearGradient id="paint0_linear_1382_34065" x1="23.6075" y1="73.253" x2="-7.33747" y2="72.7572" gradientUnits="userSpaceOnUse">
<stop stop-color="#015DBA"/>
<stop offset="0.71243" stop-color="#019EBD"/>
<stop offset="1" stop-color="#01C8BF"/>
</linearGradient>
</defs>
</svg>
