<svg width="19" height="20" viewBox="0 0 19 20" fill="none" xmlns="http://www.w3.org/2000/svg">
<path fill-rule="evenodd" clip-rule="evenodd" d="M7.67871 10C10.4401 10 12.6787 7.76142 12.6787 5C12.6787 2.23858 10.4401 0 7.67871 0C4.91729 0 2.67871 2.23858 2.67871 5C2.67871 7.76142 4.91729 10 7.67871 10ZM4.30954 11.666C3.21439 11.6673 2.16446 12.103 1.39007 12.8774C0.615671 13.6518 0.180034 14.7017 0.178711 15.7968V19.9993H15.1787V15.7968C15.1774 14.7017 14.7418 13.6518 13.9674 12.8774C13.193 12.103 12.143 11.6673 11.0479 11.666H4.30954ZM16.1787 11C17.2833 11 18.1787 10.1046 18.1787 9C18.1787 7.89543 17.2833 7 16.1787 7C15.0741 7 14.1787 7.89543 14.1787 9C14.1787 10.1046 15.0741 11 16.1787 11Z" fill="url(#paint0_linear_1382_34087)"/>
<defs>
<linearGradient id="paint0_linear_1382_34087" x1="21.2646" y1="73.2506" x2="-6.58721" y2="72.849" gradientUnits="userSpaceOnUse">
<stop stop-color="#015DBA"/>
<stop offset="0.71243" stop-color="#019EBD"/>
<stop offset="1" stop-color="#01C8BF"/>
</linearGradient>
</defs>
</svg>
