<svg width="21" height="20" viewBox="0 0 21 20" fill="none" xmlns="http://www.w3.org/2000/svg">
<path d="M7.67871 3.33333C7.67871 1.4925 10.477 0 13.9287 0C17.3804 0 20.1787 1.4925 20.1787 3.33333C20.1787 5.17417 17.3804 6.66667 13.9287 6.66667C10.477 6.66667 7.67871 5.17417 7.67871 3.33333ZM13.9287 8.33333C13.0729 8.33333 12.2612 8.2375 11.5195 8.07083C10.387 7.22167 8.53121 6.66667 6.42871 6.66667C2.97704 6.66667 0.178711 8.15917 0.178711 10C0.178711 11.8408 2.97704 13.3333 6.42871 13.3333C9.88038 13.3333 12.6787 11.8408 12.6787 10C12.6787 9.97583 12.6729 9.9525 12.672 9.92833H12.6787V11.6667C12.6787 13.5075 9.88038 15 6.42871 15C2.97704 15 0.178711 13.5075 0.178711 11.6667V13.3333C0.178711 15.1742 2.97704 16.6667 6.42871 16.6667C9.88038 16.6667 12.6787 15.1742 12.6787 13.3333V15C12.6787 16.8408 9.88038 18.3333 6.42871 18.3333C2.97704 18.3333 0.178711 16.8408 0.178711 15V16.6667C0.178711 18.5075 2.97704 20 6.42871 20C9.88038 20 12.6787 18.5075 12.6787 16.6667V16.6C13.0829 16.6433 13.5004 16.6667 13.9287 16.6667C17.3804 16.6667 20.1787 15.1742 20.1787 13.3333V11.6667C20.1787 13.4325 17.602 14.8742 14.3454 14.9892V13.3225C17.602 13.2075 20.1787 11.7667 20.1787 10V8.33333C20.1787 10.0992 17.602 11.5408 14.3454 11.6558V9.98917C17.602 9.87417 20.1787 8.43333 20.1787 6.66667V5C20.1787 6.84083 17.3804 8.33333 13.9287 8.33333Z" fill="url(#paint0_linear_1382_34085)"/>
<defs>
<linearGradient id="paint0_linear_1382_34085" x1="23.6075" y1="73.253" x2="-7.33747" y2="72.7572" gradientUnits="userSpaceOnUse">
<stop stop-color="#015DBA"/>
<stop offset="0.71243" stop-color="#019EBD"/>
<stop offset="1" stop-color="#01C8BF"/>
</linearGradient>
</defs>
</svg>
