<svg width="32" height="34" viewBox="0 0 32 34" fill="none" xmlns="http://www.w3.org/2000/svg">
<path d="M28.8976 25.599C28.0404 24.8082 27.29 23.9017 26.6665 22.9039C25.9858 21.5265 25.5778 20.0222 25.4665 18.4795V13.9355C25.4724 11.5123 24.623 9.17033 23.0778 7.34953C21.5327 5.52872 19.3982 4.35446 17.0754 4.04736V2.86078C17.0754 2.53511 16.9504 2.22277 16.7278 1.99248C16.5053 1.76219 16.2034 1.63281 15.8887 1.63281C15.574 1.63281 15.2722 1.76219 15.0496 1.99248C14.8271 2.22277 14.702 2.53511 14.702 2.86078V4.06576C12.4001 4.39499 10.2914 5.57636 8.76652 7.39104C7.24168 9.20573 6.40403 11.5308 6.40872 13.9355V18.4795C6.29739 20.0222 5.88941 21.5265 5.20872 22.9039C4.59617 23.8994 3.85778 24.8058 3.01316 25.599C2.91834 25.6852 2.84235 25.7913 2.79024 25.9102C2.73813 26.0292 2.7111 26.1582 2.71094 26.2888V27.5398C2.71094 27.7838 2.80459 28.0177 2.97129 28.1902C3.13799 28.3627 3.36408 28.4596 3.59983 28.4596H28.3109C28.5467 28.4596 28.7728 28.3627 28.9395 28.1902C29.1062 28.0177 29.1998 27.7838 29.1998 27.5398V26.2888C29.1997 26.1582 29.1726 26.0292 29.1205 25.9102C29.0684 25.7913 28.9924 25.6852 28.8976 25.599ZM4.55983 26.62C5.38686 25.7932 6.11503 24.8668 6.72872 23.8605C7.58615 22.197 8.08643 20.3615 8.19538 18.4795V13.9355C8.16013 12.8575 8.33487 11.7832 8.7092 10.7765C9.08353 9.76986 9.64979 8.85143 10.3743 8.07594C11.0987 7.30045 11.9666 6.68375 12.9262 6.26256C13.8858 5.84138 14.9175 5.62433 15.9598 5.62433C17.0022 5.62433 18.0339 5.84138 18.9934 6.26256C19.953 6.68375 20.8209 7.30045 21.5454 8.07594C22.2699 8.85143 22.8361 9.76986 23.2105 10.7765C23.5848 11.7832 23.7595 12.8575 23.7243 13.9355V18.4795C23.8332 20.3615 24.3335 22.197 25.1909 23.8605C25.8046 24.8668 26.5328 25.7932 27.3598 26.62H4.55983Z" fill="white"/>
<path d="M15.9994 31.5308C16.5594 31.5175 17.0967 31.2996 17.5164 30.9158C17.9361 30.532 18.2111 30.007 18.2927 29.4336H13.6172C13.7012 30.0226 13.989 30.5599 14.4272 30.9457C14.8654 31.3315 15.4241 31.5394 15.9994 31.5308V31.5308Z" fill="white"/>
</svg>
