<svg width="21" height="17" viewBox="0 0 21 17" fill="none" xmlns="http://www.w3.org/2000/svg">
<path fill-rule="evenodd" clip-rule="evenodd" d="M19.4785 0C19.7086 0 19.8894 0.0657431 20.0085 0.193121C20.1359 0.324607 20.1893 0.50951 20.177 0.747829L20.1236 1.88601L20.1185 1.9909C20.0832 2.71573 20.0481 3.437 20.0167 4.15826C20.0085 4.33495 19.9756 4.56094 19.799 4.73762C19.7497 4.78693 19.6921 4.82802 19.6264 4.865C19.5278 4.91842 19.4333 4.94307 19.3388 4.94307C19.1128 4.94307 18.9648 4.79515 18.858 4.68831L17.9582 3.79256L10.0032 11.7475C9.8101 11.9365 9.55945 12.0433 9.28826 12.0433C9.01707 12.0433 8.76231 11.9365 8.5733 11.7475L5.4053 8.57949L2.08937 11.8954C1.90036 12.0844 1.64972 12.1913 1.37853 12.1913C1.10733 12.1913 0.852579 12.0844 0.663567 11.8954L0.474556 11.7064C0.0800961 11.3119 0.0800961 10.6751 0.474556 10.2806L4.69445 6.06481C4.88346 5.8758 5.13411 5.76897 5.4053 5.76897C5.67649 5.76897 5.93125 5.8758 6.12026 6.06481L9.28826 9.23282L16.3392 2.17775C16.1338 1.97641 15.9283 1.77096 15.727 1.56551L15.4353 1.26967C15.3202 1.15462 15.0778 0.912188 15.2503 0.538273C15.2832 0.464312 15.3243 0.402677 15.3777 0.349261C15.5431 0.183853 15.7521 0.172927 15.9074 0.164807L15.916 0.164358C16.4995 0.13765 17.0819 0.109914 17.6644 0.0821786C18.2468 0.0544433 18.8293 0.026708 19.4127 0H19.4785ZM17.9579 5.48633L14.9707 8.47354V16.6257C14.9707 16.8229 15.131 16.9873 15.3323 16.9873H17.8388C18.036 16.9873 18.2003 16.827 18.2003 16.6257V5.71232C18.1437 5.66417 18.0968 5.61992 18.0583 5.58362C18.041 5.56726 18.0254 5.55251 18.0113 5.53974L17.9579 5.48633ZM10.4922 16.6255V12.8863C10.6196 12.8042 10.7387 12.7097 10.8497 12.5987L13.7218 9.72656V16.6255C13.7218 16.8268 13.5575 16.9871 13.3602 16.9871H10.8538C10.6524 16.9871 10.4922 16.8227 10.4922 16.6255ZM6.01367 10.8809V16.6252C6.01367 16.8224 6.17392 16.9868 6.37526 16.9868H8.88172C9.07895 16.9868 9.24331 16.8265 9.24331 16.6252V13.2435C8.67216 13.2312 8.138 13.0052 7.73532 12.6025L6.01367 10.8809ZM1.53418 13.3831V16.6251C1.53418 16.8223 1.69443 16.9867 1.89577 16.9867H4.40223C4.59946 16.9867 4.76382 16.8264 4.76382 16.6251V10.9219L2.94355 12.7421C2.55731 13.1243 2.06423 13.3462 1.53418 13.3831Z" fill="url(#paint0_linear_1382_34076)"/>
<defs>
<linearGradient id="paint0_linear_1382_34076" x1="23.6075" y1="62.2185" x2="-7.33441" y2="61.6348" gradientUnits="userSpaceOnUse">
<stop stop-color="#015DBA"/>
<stop offset="0.71243" stop-color="#019EBD"/>
<stop offset="1" stop-color="#01C8BF"/>
</linearGradient>
</defs>
</svg>
