<svg width="21" height="20" viewBox="0 0 21 20" fill="none" xmlns="http://www.w3.org/2000/svg">
<path fill-rule="evenodd" clip-rule="evenodd" d="M9.76143 10.4168V10.4168C9.60509 10.2604 9.51726 10.0484 9.51726 9.8273V0.95457C9.51726 0.370077 9.01644 -0.0941791 8.4425 0.0163771C7.25758 0.244624 6.12071 0.686063 5.08828 1.32219C3.74702 2.14861 2.61999 3.28024 1.79903 4.62486C0.978075 5.96948 0.486427 7.48905 0.364152 9.05972C0.241876 10.6304 0.492432 12.2077 1.0954 13.6632C1.69837 15.1187 2.63669 16.4111 3.8339 17.4351C5.03111 18.4592 6.45333 19.1859 7.98467 19.556C9.516 19.9261 11.1131 19.9292 12.6459 19.565C13.8257 19.2846 14.9417 18.7927 15.9409 18.1161C16.4249 17.7884 16.4507 17.106 16.0374 16.6928L9.76143 10.4168ZM14.7765 10.6602C13.8856 10.6602 13.4394 11.7373 14.0694 12.3673L17.2151 15.513C17.6286 15.9265 18.3115 15.9003 18.6387 15.4156C19.3891 14.3039 19.9071 13.0518 20.1615 11.735C20.2724 11.161 19.8081 10.6602 19.2236 10.6602H14.7765ZM20.1594 7.91802C20.2711 8.49238 19.8067 8.99427 19.2216 8.99427H12.1836C11.6313 8.99427 11.1836 8.54656 11.1836 7.99427V0.956313C11.1836 0.371185 11.6855 -0.0932774 12.2598 0.018463C14.2055 0.396994 16.0036 1.3479 17.4168 2.76106C18.83 4.17423 19.7809 5.97233 20.1594 7.91802Z" fill="url(#paint0_linear_1382_34067)"/>
<defs>
<linearGradient id="paint0_linear_1382_34067" x1="23.58" y1="72.6518" x2="-7.12357" y2="72.1597" gradientUnits="userSpaceOnUse">
<stop stop-color="#015DBA"/>
<stop offset="0.71243" stop-color="#019EBD"/>
<stop offset="1" stop-color="#01C8BF"/>
</linearGradient>
</defs>
</svg>
