<svg width="21" height="21" viewBox="0 0 21 21" fill="none" xmlns="http://www.w3.org/2000/svg">
<path d="M10.1777 20.013C9.71524 20.013 9.25357 19.9488 8.8044 19.8205L3.1994 18.2197C1.42023 17.7113 0.177734 16.0638 0.177734 14.213V3.34633C0.177734 2.88633 0.551068 2.513 1.01107 2.513C1.47107 2.513 1.8444 2.88633 1.8444 3.34633V14.213C1.8444 15.3238 2.59023 16.3122 3.65773 16.6172L9.26274 18.218C9.8619 18.3888 10.4944 18.3888 11.0944 18.218L16.6986 16.6172C17.7661 16.3122 18.5119 15.3238 18.5119 14.213V2.513C18.5119 2.053 18.8852 1.67966 19.3452 1.67966C19.8052 1.67966 20.1786 2.053 20.1786 2.513V14.213C20.1786 16.063 18.9361 17.7105 17.1569 18.2197L11.5519 19.8205C11.1019 19.9488 10.6402 20.013 10.1786 20.013H10.1777ZM15.1952 0.142163C15.1956 0.142163 15.1956 0.1417 15.1953 0.141585C14.5891 -0.0819072 13.9139 -0.0259636 13.3136 0.21383L12.5827 0.505497C11.6336 0.884663 11.0102 1.80466 11.0102 2.82716V14.0649C11.0102 14.5605 10.6725 15.013 10.1769 15.013V15.013V15.013C9.6813 15.013 9.34357 14.5605 9.34357 14.0649V2.82716C9.34357 1.80466 8.72107 0.884663 7.77107 0.505497L7.0394 0.212997C6.43857 -0.0270035 5.76274 -0.0828368 5.15607 0.142163C4.14357 0.517163 3.5094 1.46133 3.5094 2.49383V13.0888C3.5094 14.2047 4.2494 15.1855 5.3219 15.4922L8.8019 16.4872C9.25024 16.6147 9.71274 16.6788 10.1752 16.6788C10.6377 16.6788 11.1002 16.6147 11.5486 16.4872L15.0286 15.4922C16.1019 15.1855 16.8411 14.2047 16.8411 13.0888V2.49383C16.8411 1.46186 16.2067 0.517307 15.1951 0.142744C15.1948 0.142629 15.1949 0.142163 15.1952 0.142163V0.142163Z" fill="url(#paint0_linear_1382_34072)"/>
<defs>
<linearGradient id="paint0_linear_1382_34072" x1="23.6075" y1="73.3006" x2="-7.33877" y2="72.8051" gradientUnits="userSpaceOnUse">
<stop stop-color="#015DBA"/>
<stop offset="0.71243" stop-color="#019EBD"/>
<stop offset="1" stop-color="#01C8BF"/>
</linearGradient>
</defs>
</svg>
